<svg xmlns="http://www.w3.org/2000/svg" xmlns:xlink="http://www.w3.org/1999/xlink" contentStyleType="text/css" height="2053.125px" preserveAspectRatio="none" style="width:784px;height:2053px;background:#FFFFFF;" version="1.1" viewBox="0 0 784 2053" width="784.375px" zoomAndPan="magnify"><defs/><g><!--entity Kernel--><g id="elem_Kernel"><polygon fill="#F1F1F1" points="400.7813,25,416.4063,9.375,599.3698,9.375,599.3698,66.0889,583.7448,81.7139,400.7813,81.7139,400.7813,25" style="stroke:#181818;stroke-width:0.7813;"/><line style="stroke:#181818;stroke-width:0.7813;" x1="583.7448" x2="599.3698" y1="25" y2="9.375"/><line style="stroke:#181818;stroke-width:0.7813;" x1="400.7813" x2="583.7448" y1="25" y2="25"/><line style="stroke:#181818;stroke-width:0.7813;" x1="583.7448" x2="583.7448" y1="25" y2="81.7139"/><text fill="#000000" font-family="sans-serif" font-size="21.875" lengthAdjust="spacing" textLength="136.0886" x="424.2188" y="60.9299">Linux Kernel</text></g><!--entity Init--><g id="elem_Init"><polygon fill="#F1F1F1" points="303.125,217.1875,318.75,201.5625,443.9713,201.5625,443.9713,258.2764,428.3463,273.9014,303.125,273.9014,303.125,217.1875" style="stroke:#181818;stroke-width:0.7813;"/><line style="stroke:#181818;stroke-width:0.7813;" x1="428.3463" x2="443.9713" y1="217.1875" y2="201.5625"/><line style="stroke:#181818;stroke-width:0.7813;" x1="303.125" x2="428.3463" y1="217.1875" y2="217.1875"/><line style="stroke:#181818;stroke-width:0.7813;" x1="428.3463" x2="428.3463" y1="217.1875" y2="273.9014"/><text fill="#000000" font-family="sans-serif" font-size="21.875" lengthAdjust="spacing" textLength="78.3463" x="326.5625" y="253.1174">init&#36827;&#31243;</text></g><!--entity SystemServices--><g id="elem_SystemServices"><polygon fill="#F1F1F1" points="103.125,409.375,118.75,393.75,340.625,393.75,340.625,450.4639,325,466.0889,103.125,466.0889,103.125,409.375" style="stroke:#181818;stroke-width:0.7813;"/><line style="stroke:#181818;stroke-width:0.7813;" x1="325" x2="340.625" y1="409.375" y2="393.75"/><line style="stroke:#181818;stroke-width:0.7813;" x1="103.125" x2="325" y1="409.375" y2="409.375"/><line style="stroke:#181818;stroke-width:0.7813;" x1="325" x2="325" y1="409.375" y2="466.0889"/><text fill="#000000" font-family="sans-serif" font-size="21.875" lengthAdjust="spacing" textLength="175" x="126.5625" y="445.3049">&#21551;&#21160;&#20851;&#38190;&#31995;&#32479;&#26381;&#21153;</text></g><!--entity KernelInit--><g id="elem_KernelInit"><polygon fill="#F1F1F1" points="498.4375,217.1875,514.0625,201.5625,757.8125,201.5625,757.8125,258.2764,742.1875,273.9014,498.4375,273.9014,498.4375,217.1875" style="stroke:#181818;stroke-width:0.7813;"/><line style="stroke:#181818;stroke-width:0.7813;" x1="742.1875" x2="757.8125" y1="217.1875" y2="201.5625"/><line style="stroke:#181818;stroke-width:0.7813;" x1="498.4375" x2="742.1875" y1="217.1875" y2="217.1875"/><line style="stroke:#181818;stroke-width:0.7813;" x1="742.1875" x2="742.1875" y1="217.1875" y2="273.9014"/><text fill="#000000" font-family="sans-serif" font-size="21.875" lengthAdjust="spacing" textLength="196.875" x="521.875" y="253.1174">&#20869;&#26680;&#31354;&#38388;&#21021;&#22987;&#21270;&#23436;&#25104;</text></g><!--entity UserSpaceInit--><g id="elem_UserSpaceInit"><polygon fill="#F1F1F1" points="395.3125,409.375,410.9375,393.75,654.6875,393.75,654.6875,450.4639,639.0625,466.0889,395.3125,466.0889,395.3125,409.375" style="stroke:#181818;stroke-width:0.7813;"/><line style="stroke:#181818;stroke-width:0.7813;" x1="639.0625" x2="654.6875" y1="409.375" y2="393.75"/><line style="stroke:#181818;stroke-width:0.7813;" x1="395.3125" x2="639.0625" y1="409.375" y2="409.375"/><line style="stroke:#181818;stroke-width:0.7813;" x1="639.0625" x2="639.0625" y1="409.375" y2="466.0889"/><text fill="#000000" font-family="sans-serif" font-size="21.875" lengthAdjust="spacing" textLength="196.875" x="418.75" y="445.3049">&#29992;&#25143;&#31354;&#38388;&#31532;&#19968;&#20010;&#36827;&#31243;</text></g><!--entity Zygote--><g id="elem_Zygote"><polygon fill="#F1F1F1" points="82.8125,625,98.4375,609.375,361.1679,609.375,361.1679,666.0889,345.5429,681.7139,82.8125,681.7139,82.8125,625" style="stroke:#181818;stroke-width:0.7813;"/><line style="stroke:#181818;stroke-width:0.7813;" x1="345.5429" x2="361.1679" y1="625" y2="609.375"/><line style="stroke:#181818;stroke-width:0.7813;" x1="82.8125" x2="345.5429" y1="625" y2="625"/><line style="stroke:#181818;stroke-width:0.7813;" x1="345.5429" x2="345.5429" y1="625" y2="681.7139"/><text fill="#000000" font-family="sans-serif" font-size="21.875" lengthAdjust="spacing" textLength="215.8554" x="106.25" y="660.9299">Zygote&#39044;&#21152;&#36733;&#31867;/&#36164;&#28304;</text></g><!--entity ServiceManager--><g id="elem_ServiceManager"><polygon fill="#F1F1F1" points="98.4375,817.1875,114.0625,801.5625,344.6213,801.5625,344.6213,858.2764,328.9963,873.9014,98.4375,873.9014,98.4375,817.1875" style="stroke:#181818;stroke-width:0.7813;"/><line style="stroke:#181818;stroke-width:0.7813;" x1="328.9963" x2="344.6213" y1="817.1875" y2="801.5625"/><line style="stroke:#181818;stroke-width:0.7813;" x1="98.4375" x2="328.9963" y1="817.1875" y2="817.1875"/><line style="stroke:#181818;stroke-width:0.7813;" x1="328.9963" x2="328.9963" y1="817.1875" y2="873.9014"/><text fill="#000000" font-family="sans-serif" font-size="21.875" lengthAdjust="spacing" textLength="183.6838" x="121.875" y="853.1174">Service Manager</text></g><!--entity AMS--><g id="elem_AMS"><polygon fill="#F1F1F1" points="25,1009.375,40.625,993.75,418.1671,993.75,418.1671,1050.4639,402.5421,1066.0889,25,1066.0889,25,1009.375" style="stroke:#181818;stroke-width:0.7813;"/><line style="stroke:#181818;stroke-width:0.7813;" x1="402.5421" x2="418.1671" y1="1009.375" y2="993.75"/><line style="stroke:#181818;stroke-width:0.7813;" x1="25" x2="402.5421" y1="1009.375" y2="1009.375"/><line style="stroke:#181818;stroke-width:0.7813;" x1="402.5421" x2="402.5421" y1="1009.375" y2="1066.0889"/><text fill="#000000" font-family="sans-serif" font-size="21.875" lengthAdjust="spacing" textLength="330.6671" x="48.4375" y="1045.3049">ActivityManagerService (AMS)</text></g><!--entity ZygoteFork--><g id="elem_ZygoteFork"><polygon fill="#F1F1F1" points="144.5313,1201.5625,160.1563,1185.9375,377.7161,1185.9375,377.7161,1242.6514,362.0911,1258.2764,144.5313,1258.2764,144.5313,1201.5625" style="stroke:#181818;stroke-width:0.7813;"/><line style="stroke:#181818;stroke-width:0.7813;" x1="362.0911" x2="377.7161" y1="1201.5625" y2="1185.9375"/><line style="stroke:#181818;stroke-width:0.7813;" x1="144.5313" x2="362.0911" y1="1201.5625" y2="1201.5625"/><line style="stroke:#181818;stroke-width:0.7813;" x1="362.0911" x2="362.0911" y1="1201.5625" y2="1258.2764"/><text fill="#000000" font-family="sans-serif" font-size="21.875" lengthAdjust="spacing" textLength="170.6848" x="167.9688" y="1237.4924">Zygote fork&#36827;&#31243;</text></g><!--entity BinderReady--><g id="elem_BinderReady"><polygon fill="#F1F1F1" points="473.4375,1009.375,489.0625,993.75,738.4735,993.75,738.4735,1050.4639,722.8485,1066.0889,473.4375,1066.0889,473.4375,1009.375" style="stroke:#181818;stroke-width:0.7813;"/><line style="stroke:#181818;stroke-width:0.7813;" x1="722.8485" x2="738.4735" y1="1009.375" y2="993.75"/><line style="stroke:#181818;stroke-width:0.7813;" x1="473.4375" x2="722.8485" y1="1009.375" y2="1009.375"/><line style="stroke:#181818;stroke-width:0.7813;" x1="722.8485" x2="722.8485" y1="1009.375" y2="1066.0889"/><text fill="#000000" font-family="sans-serif" font-size="21.875" lengthAdjust="spacing" textLength="202.536" x="496.875" y="1045.3049">Binder&#36890;&#20449;&#26694;&#26550;&#23601;&#32490;</text></g><!--entity AMSLauncher--><g id="elem_AMSLauncher"><polygon fill="#F1F1F1" points="448.4375,1201.5625,464.0625,1185.9375,747.8241,1185.9375,747.8241,1242.6514,732.1991,1258.2764,448.4375,1258.2764,448.4375,1201.5625" style="stroke:#181818;stroke-width:0.7813;"/><line style="stroke:#181818;stroke-width:0.7813;" x1="732.1991" x2="747.8241" y1="1201.5625" y2="1185.9375"/><line style="stroke:#181818;stroke-width:0.7813;" x1="448.4375" x2="732.1991" y1="1201.5625" y2="1201.5625"/><line style="stroke:#181818;stroke-width:0.7813;" x1="732.1991" x2="732.1991" y1="1201.5625" y2="1258.2764"/><text fill="#000000" font-family="sans-serif" font-size="21.875" lengthAdjust="spacing" textLength="236.8866" x="471.875" y="1237.4924">AMS&#35831;&#27714;&#21551;&#21160;Launcher</text></g><!--entity AppInit--><g id="elem_AppInit"><polygon fill="#F1F1F1" points="312.5,1393.75,328.125,1378.125,528.125,1378.125,528.125,1434.8389,512.5,1450.4639,312.5,1450.4639,312.5,1393.75" style="stroke:#181818;stroke-width:0.7813;"/><line style="stroke:#181818;stroke-width:0.7813;" x1="512.5" x2="528.125" y1="1393.75" y2="1378.125"/><line style="stroke:#181818;stroke-width:0.7813;" x1="312.5" x2="512.5" y1="1393.75" y2="1393.75"/><line style="stroke:#181818;stroke-width:0.7813;" x1="512.5" x2="512.5" y1="1393.75" y2="1450.4639"/><text fill="#000000" font-family="sans-serif" font-size="21.875" lengthAdjust="spacing" textLength="153.125" x="335.9375" y="1429.6799">&#24212;&#29992;&#36827;&#31243;&#21021;&#22987;&#21270;</text></g><!--entity MainThread--><g id="elem_MainThread"><polygon fill="#F1F1F1" points="277.3438,1585.9375,292.9688,1570.3125,563.4537,1570.3125,563.4537,1627.0264,547.8287,1642.6514,277.3438,1642.6514,277.3438,1585.9375" style="stroke:#181818;stroke-width:0.7813;"/><line style="stroke:#181818;stroke-width:0.7813;" x1="547.8287" x2="563.4537" y1="1585.9375" y2="1570.3125"/><line style="stroke:#181818;stroke-width:0.7813;" x1="277.3438" x2="547.8287" y1="1585.9375" y2="1585.9375"/><line style="stroke:#181818;stroke-width:0.7813;" x1="547.8287" x2="547.8287" y1="1585.9375" y2="1642.6514"/><text fill="#000000" font-family="sans-serif" font-size="21.875" lengthAdjust="spacing" textLength="223.6099" x="300.7813" y="1621.8674">&#20027;&#32447;&#31243;&#21021;&#22987;&#21270;(Looper)</text></g><!--entity Launcher--><g id="elem_Launcher"><polygon fill="#F1F1F1" points="160.9375,1778.125,176.5625,1762.5,414.2456,1762.5,414.2456,1819.2139,398.6206,1834.8389,160.9375,1834.8389,160.9375,1778.125" style="stroke:#181818;stroke-width:0.7813;"/><line style="stroke:#181818;stroke-width:0.7813;" x1="398.6206" x2="414.2456" y1="1778.125" y2="1762.5"/><line style="stroke:#181818;stroke-width:0.7813;" x1="160.9375" x2="398.6206" y1="1778.125" y2="1778.125"/><line style="stroke:#181818;stroke-width:0.7813;" x1="398.6206" x2="398.6206" y1="1778.125" y2="1834.8389"/><text fill="#000000" font-family="sans-serif" font-size="21.875" lengthAdjust="spacing" textLength="190.8081" x="184.375" y="1814.0549">Launcher Activity</text></g><!--entity UIDraw--><g id="elem_UIDraw"><polygon fill="#F1F1F1" points="468.75,1778.125,484.375,1762.5,641.2125,1762.5,641.2125,1819.2139,625.5875,1834.8389,468.75,1834.8389,468.75,1778.125" style="stroke:#181818;stroke-width:0.7813;"/><line style="stroke:#181818;stroke-width:0.7813;" x1="625.5875" x2="641.2125" y1="1778.125" y2="1762.5"/><line style="stroke:#181818;stroke-width:0.7813;" x1="468.75" x2="625.5875" y1="1778.125" y2="1778.125"/><line style="stroke:#181818;stroke-width:0.7813;" x1="625.5875" x2="625.5875" y1="1778.125" y2="1834.8389"/><text fill="#000000" font-family="sans-serif" font-size="21.875" lengthAdjust="spacing" textLength="109.9625" x="492.1875" y="1814.0549">&#23436;&#25104;UI&#32472;&#21046;</text></g><!--entity UserReady--><g id="elem_UserReady"><polygon fill="#F1F1F1" points="323.4375,1970.3125,339.0625,1954.6875,517.1875,1954.6875,517.1875,2011.4014,501.5625,2027.0264,323.4375,2027.0264,323.4375,1970.3125" style="stroke:#181818;stroke-width:0.7813;"/><line style="stroke:#181818;stroke-width:0.7813;" x1="501.5625" x2="517.1875" y1="1970.3125" y2="1954.6875"/><line style="stroke:#181818;stroke-width:0.7813;" x1="323.4375" x2="501.5625" y1="1970.3125" y2="1970.3125"/><line style="stroke:#181818;stroke-width:0.7813;" x1="501.5625" x2="501.5625" y1="1970.3125" y2="2027.0264"/><text fill="#000000" font-family="sans-serif" font-size="21.875" lengthAdjust="spacing" textLength="131.25" x="346.875" y="2006.2424">&#29992;&#25143;&#20132;&#20114;&#23601;&#32490;</text></g><!--link Kernel to Init--><g id="link_Kernel_Init"><path d="M466.875,81.3281 C445.5781,103.4844 421.875,128.125 421.875,128.125 C421.875,128.125 407.0289,161.1669 392.8726,192.6825 " fill="none" id="Kernel-to-Init" style="stroke:#181818;stroke-width:1.5625;"/><polygon fill="#181818" points="389.0313,201.2344,400.4945,190.9675,392.2324,194.1078,389.092,185.8457,389.0313,201.2344" style="stroke:#181818;stroke-width:1.5625;"/><text fill="#000000" font-family="sans-serif" font-size="20.3125" lengthAdjust="spacing" textLength="162.5" x="423.4375" y="148.542">&#21021;&#22987;&#21270;&#30828;&#20214;&#12289;&#39537;&#21160;</text></g><!--link Init to SystemServices--><g id="link_Init_SystemServices"><path d="M345.6406,273.7344 C318.2969,307.8594 282.6435,352.3089 255.3622,386.3558 " fill="none" id="Init-to-SystemServices" style="stroke:#181818;stroke-width:1.5625;"/><polygon fill="#181818" points="249.5,393.6719,263.1707,386.606,254.3852,387.5752,253.416,378.7896,249.5,393.6719" style="stroke:#181818;stroke-width:1.5625;"/><text fill="#000000" font-family="sans-serif" font-size="20.3125" lengthAdjust="spacing" textLength="139.3509" x="309.375" y="340.7295">&#35299;&#26512;init.rc&#37197;&#32622;</text></g><!--link SystemServices to Zygote--><g id="link_SystemServices_Zygote"><path d="M143.0156,465.7031 C92.3438,487.8594 35.9375,512.5 35.9375,512.5 C35.9375,512.5 35.9375,562.5 35.9375,562.5 C35.9375,562.5 83.754,583.3848 134.4259,605.541 " fill="none" id="SystemServices-to-Zygote" style="stroke:#181818;stroke-width:1.5625;"/><polygon fill="#181818" points="143.0156,609.2969,132.6349,597.9366,135.8575,606.167,127.6271,609.3896,143.0156,609.2969" style="stroke:#181818;stroke-width:1.5625;"/><text fill="#000000" font-family="sans-serif" font-size="20.3125" lengthAdjust="spacing" textLength="323.5321" x="37.5" y="532.917">&#21551;&#21160;Zygote&#12289;Service Manager&#12289;</text><text fill="#000000" font-family="sans-serif" font-size="20.3125" lengthAdjust="spacing" textLength="154.3869" x="122.0726" y="556.562">Media Server&#31561;</text></g><!--link SystemServices to Zygote--><g id="link_SystemServices_Zygote"><path d="M284.1563,465.7031 C324.1875,487.8594 368.75,512.5 368.75,512.5 C368.75,512.5 368.75,562.5 368.75,562.5 C368.75,562.5 332.39,582.6008 292.3587,604.757 " fill="none" id="SystemServices-to-Zygote-1" style="stroke:#181818;stroke-width:1.5625;"/><polygon fill="#181818" points="284.1563,609.2969,299.4865,607.9554,290.9916,605.5137,293.4334,597.0188,284.1563,609.2969" style="stroke:#181818;stroke-width:1.5625;"/></g><!--link Kernel to KernelInit--><g id="link_Kernel_KernelInit"><path d="M539.7656,81.3281 C565.3125,103.4844 593.75,128.125 593.75,128.125 C593.75,128.125 604.1682,160.7866 614.215,192.3023 " fill="none" id="Kernel-to-KernelInit" style="stroke:#181818;stroke-width:1.5625;"/><polygon fill="#181818" points="617.0625,201.2344,618.746,185.9379,614.6896,193.791,606.8366,189.7345,617.0625,201.2344" style="stroke:#181818;stroke-width:1.5625;"/></g><!--link Init to UserSpaceInit--><g id="link_Init_UserSpaceInit"><path d="M411.2031,273.5156 C435.4844,295.6719 462.5,320.3125 462.5,320.3125 C462.5,320.3125 481.9084,353.7951 500.174,385.3107 " fill="none" id="Init-to-UserSpaceInit" style="stroke:#181818;stroke-width:1.5625;"/><polygon fill="#181818" points="504.875,393.4219,503.2309,378.1211,500.9575,386.6626,492.416,384.3891,504.875,393.4219" style="stroke:#181818;stroke-width:1.5625;"/></g><!--link Zygote to ServiceManager--><g id="link_Zygote_ServiceManager"><path d="M221.875,681.5469 C221.875,715.6719 221.875,758.0625 221.875,792.1094 " fill="none" id="Zygote-to-ServiceManager" style="stroke:#181818;stroke-width:1.5625;"/><polygon fill="#181818" points="221.875,801.4844,228.125,787.4219,221.875,793.6719,215.625,787.4219,221.875,801.4844" style="stroke:#181818;stroke-width:1.5625;"/><text fill="#000000" font-family="sans-serif" font-size="20.3125" lengthAdjust="spacing" textLength="149.9634" x="223.4375" y="748.542">&#30417;&#21548;Socket&#35831;&#27714;</text></g><!--link ServiceManager to AMS--><g id="link_ServiceManager_AMS"><path d="M221.875,873.7344 C221.875,907.8594 221.875,950.25 221.875,984.2969 " fill="none" id="ServiceManager-to-AMS" style="stroke:#181818;stroke-width:1.5625;"/><polygon fill="#181818" points="221.875,993.6719,228.125,979.6094,221.875,985.8594,215.625,979.6094,221.875,993.6719" style="stroke:#181818;stroke-width:1.5625;"/><text fill="#000000" font-family="sans-serif" font-size="20.3125" lengthAdjust="spacing" textLength="147.4442" x="223.4375" y="940.7295">&#27880;&#20876;Binder&#26381;&#21153;</text></g><!--link AMS to ZygoteFork--><g id="link_AMS_ZygoteFork"><path d="M229.0469,1065.9219 C236.0938,1100.0469 244.8852,1142.6312 251.9164,1176.6781 " fill="none" id="AMS-to-ZygoteFork" style="stroke:#181818;stroke-width:1.5625;"/><polygon fill="#181818" points="253.8125,1185.8594,257.0892,1170.8234,252.2324,1178.2083,244.8475,1173.3515,253.8125,1185.8594" style="stroke:#181818;stroke-width:1.5625;"/><text fill="#000000" font-family="sans-serif" font-size="20.3125" lengthAdjust="spacing" textLength="198.1956" x="245.3125" y="1132.917">&#31649;&#29702;Activity&#29983;&#21629;&#21608;&#26399;</text></g><!--link ZygoteFork to AppInit--><g id="link_ZygoteFork_AppInit"><path d="M290.1719,1258.1094 C318.9219,1292.2344 356.5373,1336.8307 385.2248,1370.8775 " fill="none" id="ZygoteFork-to-AppInit" style="stroke:#181818;stroke-width:1.5625;"/><polygon fill="#181818" points="391.2656,1378.0469,386.984,1363.2657,386.2316,1372.0724,377.4249,1371.3201,391.2656,1378.0469" style="stroke:#181818;stroke-width:1.5625;"/><text fill="#000000" font-family="sans-serif" font-size="20.3125" lengthAdjust="spacing" textLength="121.875" x="353.125" y="1325.1045">&#21019;&#24314;&#24212;&#29992;&#36827;&#31243;</text></g><!--link BinderReady to AMSLauncher--><g id="link_BinderReady_AMSLauncher"><path d="M604.8125,1065.9219 C603.4063,1100.0469 601.6525,1142.4455 600.2463,1176.4924 " fill="none" id="BinderReady-to-AMSLauncher" style="stroke:#181818;stroke-width:1.5625;"/><polygon fill="#181818" points="599.8594,1185.8594,606.6844,1172.0668,600.1818,1178.0535,594.195,1171.5509,599.8594,1185.8594" style="stroke:#181818;stroke-width:1.5625;"/></g><!--link AMSLauncher to AppInit--><g id="link_AMSLauncher_AppInit"><path d="M565.7656,1258.1094 C533.625,1292.2344 491.271,1337.175 459.2085,1371.2218 " fill="none" id="AMSLauncher-to-AppInit" style="stroke:#181818;stroke-width:1.5625;"/><polygon fill="#181818" points="452.7812,1378.0469,466.9721,1372.0942,458.1373,1372.3593,457.8721,1363.5245,452.7812,1378.0469" style="stroke:#181818;stroke-width:1.5625;"/></g><!--link AppInit to MainThread--><g id="link_AppInit_MainThread"><path d="M420.3125,1450.2969 C420.3125,1484.4219 420.3125,1526.8125 420.3125,1560.8594 " fill="none" id="AppInit-to-MainThread" style="stroke:#181818;stroke-width:1.5625;"/><polygon fill="#181818" points="420.3125,1570.2344,426.5625,1556.1719,420.3125,1562.4219,414.0625,1556.1719,420.3125,1570.2344" style="stroke:#181818;stroke-width:1.5625;"/><text fill="#000000" font-family="sans-serif" font-size="20.3125" lengthAdjust="spacing" textLength="220.8488" x="421.875" y="1517.292">ActivityThread.main()</text></g><!--link MainThread to Launcher--><g id="link_MainThread_Launcher"><path d="M395.9531,1642.4844 C371.9844,1676.6094 340.9967,1720.7025 317.0904,1754.7494 " fill="none" id="MainThread-to-Launcher" style="stroke:#181818;stroke-width:1.5625;"/><polygon fill="#181818" points="311.7031,1762.4219,324.8991,1754.5046,316.1926,1756.0281,314.6691,1747.3216,311.7031,1762.4219" style="stroke:#181818;stroke-width:1.5625;"/></g><!--link MainThread to UIDraw--><g id="link_MainThread_UIDraw"><path d="M444.9531,1642.4844 C469.2031,1676.6094 500.5682,1720.7339 524.7713,1754.7808 " fill="none" id="MainThread-to-UIDraw" style="stroke:#181818;stroke-width:1.5625;"/><polygon fill="#181818" points="530.2031,1762.4219,527.1494,1747.3391,525.6766,1756.0543,516.9613,1754.5815,530.2031,1762.4219" style="stroke:#181818;stroke-width:1.5625;"/><text fill="#000000" font-family="sans-serif" font-size="20.3125" lengthAdjust="spacing" textLength="142.1875" x="498.4375" y="1709.4795">&#21152;&#36733;&#24067;&#23616;&#12289;&#28210;&#26579;</text></g><!--link Launcher to UserReady--><g id="link_Launcher_UserReady"><path d="M311.6406,1834.7031 C333.5625,1866.2188 362.5,1907.8125 362.5,1907.8125 C362.5,1907.8125 374.5959,1924.8146 390.3615,1946.9708 " fill="none" id="Launcher-to-UserReady" style="stroke:#181818;stroke-width:1.5625;"/><polygon fill="#181818" points="395.7969,1954.6094,392.7362,1939.528,391.2674,1948.2439,382.5515,1946.7751,395.7969,1954.6094" style="stroke:#181818;stroke-width:1.5625;"/><text fill="#000000" font-family="sans-serif" font-size="20.3125" lengthAdjust="spacing" textLength="121.875" x="364.0625" y="1901.667">&#26174;&#31034;&#26700;&#38754;&#22270;&#26631;</text></g><!--link UIDraw to UserReady--><g id="link_UIDraw_UserReady"><path d="M535.0781,1834.7031 C517.25,1866.2188 493.75,1907.8125 493.75,1907.8125 C493.75,1907.8125 477.7533,1925.4965 457.7377,1947.6527 " fill="none" id="UIDraw-to-UserReady" style="stroke:#181818;stroke-width:1.5625;"/><polygon fill="#181818" points="451.4531,1954.6094,465.5177,1948.3641,456.6902,1948.8122,456.2422,1939.9847,451.4531,1954.6094" style="stroke:#181818;stroke-width:1.5625;"/></g><!--SRC=[TLD1JnD15BxFhzXmWWCe1oyUJ336X4Wl5Yx6owOTO5FOtSmkO6zLeLOeIT56YGLAaOH2Qh6YqEocy6FScUd-2sTdPfVP9jvctllU-xvvxnkdO9YsZlHLBMyRslIZXy198Zf2riRyif4hcD1nj6abjMAOq2tQKBEjbM9q0S2qyb0RcpFCjJVQ2uXCk3AcwOuyognX6kxmha7REpmtowuoWskNUBkDjwx2UfTU-THlaeDTlDtYk6pHSU5g5g9r8mUTkAAyHOxxzDmBl_x6bKDyjeEhNt2tIYerXLYXeFKsgTo80jhf1FrIqBzGr2mu46LjFGULcbV59Sk5uSactZuU3WQqvpyO_jaadg0GMGcLyhICRkfB40dX8YP34ZYJSurrmotAQ5mtFfF9Jl0gTaZHQuiMAYX2HVGv2qhOKyFCGnIMlWLtBT8gawDh_BD7_GkE5icNKCyNOm6PxF3oXlJUYQ7FwMjcRbagPhdu7i_PgxF92VfapW9hsygeWhvFlJiLD3vdMJP4ub4PtJ3dbn6J4Jj5qcZnF3Xib9plSs6M-lkuSYtMDFiCwHkfdGRUQU1zKjuShLAy60WRQ9EJJxZTjCTQee-sEe5__RVqDZpliJa0de-0QR-nak7PTt9KYzmxXNBXrYuTTC48AAgJws8KVB3YolgFM8D5NfiPc3TqRX28w8-Fgax5kOcaj3d_omsa1FwAbFcOAjhOmxLErieLe2iC04OmKHbp0CEIgpOkLuLtn4y4KUAUAR9VrBFRehLol49QR-Az0TvhauCcK72yht0BNq03-vxgAw2OD1QHE44vgur0t32AtRkBzO_LYC3KAikDJm054bKaxKVYmbwHIlxZSVyzxfNOnaZ_5sb-1YabYSsYWUtVqbEFjAhXuGbkt9BZ3q2sIY7_0G00]--></g></svg>